# xmcd
#
# Track frame offsets: 
#        150
#        25810
#        61279
#        90834
#        121296
#        172598
#        212536
#
# Disc length: 3334 seconds
#
# Revision: 0
# Processed by: cddbd v1.5.2PL0 Copyright (c) Steve Scherf et al.
# Submitted via: ExactAudioCopy v1.3
#
DISCID=470d0407
DTITLE=Layla Zoe - Retrospective Tour 2019 [Disk 1]
DYEAR=2020
DGENRE=Blues Rock
TTITLE0=She Didn't Believe
TTITLE1=Leave You For Good
TTITLE2=Someday
TTITLE3=Don't Wanna Hurt Nobody
TTITLE4=Never Met A Man Like You
TTITLE5=Little Sister
TTITLE6=Black Oil
EXTD=
EXTT0=
EXTT1=
EXTT2=
EXTT3=
EXTT4=
EXTT5=
EXTT6=
PLAYORDER=
